<svg xmlns="http://www.w3.org/2000/svg" width="448.444" height="120.63" viewBox="0 0 448.444 120.63"><defs><style>.a{fill:#258235;fill-rule:evenodd;}.b{fill:#6c6a6a;}</style></defs><g transform="translate(12.998 -35.422)"><g transform="translate(173.873 35.422)"><path class="a" d="M262.261,35.422s-20.136,35.563-66.9,58.408c0,0,47.228-11.7,82.624-34.3,0,0-27.473,6.277-15.72-24.1" transform="translate(-195.357 -35.422)"/><path class="a" d="M281.757,44.152a4.963,4.963,0,1,0,2.861,6.413,4.965,4.965,0,0,0-2.861-6.413" transform="translate(-203.571 -36.288)"/><path class="a" d="M229.675,39.435s-1.664,20.655-18.269,41.147c0-.01,19.2-15.464,30.646-33.407,0,0-11.267,8.746-12.377-7.74" transform="translate(-197.012 -35.836)"/><path class="a" d="M239.164,40.794a2.509,2.509,0,1,0,2.689,2.322,2.5,2.5,0,0,0-2.689-2.322" transform="translate(-199.632 -35.975)"/></g><g transform="translate(-12.998 101.194)"><path class="a" d="M4.17,112.629,1.8,115.1c-1.982-1.933-3.919-2.89-5.816-2.89A4.393,4.393,0,0,0-7.108,113.4,3.6,3.6,0,0,0-8.4,116.161a4.145,4.145,0,0,0,1.054,2.669,15.041,15.041,0,0,0,4.467,3.038A16.388,16.388,0,0,1,2.746,126a7.518,7.518,0,0,1,1.465,4.5,8.133,8.133,0,0,1-2.5,6,8.426,8.426,0,0,1-6.232,2.472,10.751,10.751,0,0,1-4.745-1.1A10.212,10.212,0,0,1-13,134.9l2.312-2.64c1.886,2.124,3.909,3.195,6.022,3.195a5.464,5.464,0,0,0,3.781-1.439,4.4,4.4,0,0,0,1.567-3.344,4.361,4.361,0,0,0-1.025-2.832,16.721,16.721,0,0,0-4.675-3.06,14.891,14.891,0,0,1-5.293-3.958,7.426,7.426,0,0,1-1.407-4.462,7.144,7.144,0,0,1,2.249-5.44,7.77,7.77,0,0,1,5.639-2.161q3.974,0,8,3.873" transform="translate(12.998 -108.756)"/><path class="a" d="M15.347,109.58h3.685V123a29.732,29.732,0,0,0,.513,6.753,7.6,7.6,0,0,0,3.031,4.175,9.172,9.172,0,0,0,5.332,1.54,8.873,8.873,0,0,0,5.24-1.5,7.584,7.584,0,0,0,2.979-3.926A28.062,28.062,0,0,0,36.685,123V109.58h3.744v14.1c0,3.952-.463,6.952-1.385,8.955a10.459,10.459,0,0,1-4.171,4.7,13.1,13.1,0,0,1-6.965,1.715,13.282,13.282,0,0,1-6.989-1.715,10.481,10.481,0,0,1-4.2-4.749c-.91-2.03-1.372-5.094-1.372-9.171Z" transform="translate(10.075 -108.841)"/><path class="a" d="M82.631,115.467,79.7,117.293a12.256,12.256,0,0,0-10.363-5.057,11.935,11.935,0,0,0-8.7,3.371,10.974,10.974,0,0,0-3.469,8.211,11.592,11.592,0,0,0,1.573,5.893,11.171,11.171,0,0,0,4.386,4.306,12.816,12.816,0,0,0,6.226,1.52A12.6,12.6,0,0,0,79.7,130.5l2.927,1.92a13.936,13.936,0,0,1-5.527,4.827,17.757,17.757,0,0,1-7.922,1.722A15.619,15.619,0,0,1,57.9,134.632,14.086,14.086,0,0,1,53.4,124.1a15.073,15.073,0,0,1,2.1-7.76,14.838,14.838,0,0,1,5.775-5.575,16.606,16.606,0,0,1,8.19-2.006,17.5,17.5,0,0,1,5.527.87A15.441,15.441,0,0,1,79.5,111.9a12.314,12.314,0,0,1,3.133,3.569" transform="translate(6.151 -108.756)"/><path class="a" d="M82.631,115.467,79.7,117.293a12.256,12.256,0,0,0-10.363-5.057,11.935,11.935,0,0,0-8.7,3.371,10.974,10.974,0,0,0-3.469,8.211,11.592,11.592,0,0,0,1.573,5.893,11.171,11.171,0,0,0,4.386,4.306,12.816,12.816,0,0,0,6.226,1.52A12.6,12.6,0,0,0,79.7,130.5l2.927,1.92a13.936,13.936,0,0,1-5.527,4.827,17.757,17.757,0,0,1-7.922,1.722A15.619,15.619,0,0,1,57.9,134.632,14.086,14.086,0,0,1,53.4,124.1a15.073,15.073,0,0,1,2.1-7.76,14.838,14.838,0,0,1,5.775-5.575,16.606,16.606,0,0,1,8.19-2.006,17.5,17.5,0,0,1,5.527.87A15.441,15.441,0,0,1,79.5,111.9a12.314,12.314,0,0,1,3.133,3.569" transform="translate(6.151 -108.756)"/><path class="a" d="M124.044,115.467l-2.938,1.825a12.249,12.249,0,0,0-10.35-5.057,11.966,11.966,0,0,0-8.716,3.371,11.038,11.038,0,0,0-3.492,8.211,11.674,11.674,0,0,0,1.6,5.893,11.223,11.223,0,0,0,4.39,4.306,12.764,12.764,0,0,0,6.232,1.52,12.636,12.636,0,0,0,10.334-5.036l2.938,1.92a13.986,13.986,0,0,1-5.531,4.827,17.812,17.812,0,0,1-7.918,1.722,15.68,15.68,0,0,1-11.306-4.338A14.1,14.1,0,0,1,94.8,124.1a15.294,15.294,0,0,1,2.09-7.76,14.811,14.811,0,0,1,5.788-5.575,16.641,16.641,0,0,1,8.208-2.006,17.409,17.409,0,0,1,5.5.87,15.362,15.362,0,0,1,4.5,2.273,12.188,12.188,0,0,1,3.156,3.569" transform="translate(1.883 -108.756)"/><path class="a" d="M124.044,115.467l-2.938,1.825a12.249,12.249,0,0,0-10.35-5.057,11.966,11.966,0,0,0-8.716,3.371,11.038,11.038,0,0,0-3.492,8.211,11.674,11.674,0,0,0,1.6,5.893,11.223,11.223,0,0,0,4.39,4.306,12.764,12.764,0,0,0,6.232,1.52,12.636,12.636,0,0,0,10.334-5.036l2.938,1.92a13.986,13.986,0,0,1-5.531,4.827,17.812,17.812,0,0,1-7.918,1.722,15.68,15.68,0,0,1-11.306-4.338A14.1,14.1,0,0,1,94.8,124.1a15.294,15.294,0,0,1,2.09-7.76,14.811,14.811,0,0,1,5.788-5.575,16.641,16.641,0,0,1,8.208-2.006,17.409,17.409,0,0,1,5.5.87,15.362,15.362,0,0,1,4.5,2.273,12.188,12.188,0,0,1,3.156,3.569" transform="translate(1.883 -108.756)"/><path class="a" d="M161.7,128.627l3.105,1.636a16.521,16.521,0,0,1-3.527,4.9,13.707,13.707,0,0,1-4.517,2.834,15.674,15.674,0,0,1-5.685.977q-7,0-10.982-4.608a15.621,15.621,0,0,1-3.964-10.428,15.428,15.428,0,0,1,3.354-9.745,13.71,13.71,0,0,1,11.382-5.433,14.167,14.167,0,0,1,11.722,5.538,15.446,15.446,0,0,1,3.179,9.8H139.892a11.671,11.671,0,0,0,3.207,8.23,10.2,10.2,0,0,0,7.656,3.21,12.047,12.047,0,0,0,4.266-.763,11.233,11.233,0,0,0,3.526-2.039,16.3,16.3,0,0,0,3.156-4.109m0-7.724a12.067,12.067,0,0,0-2.153-4.705,10.1,10.1,0,0,0-3.748-2.842,11.453,11.453,0,0,0-4.9-1.074,10.5,10.5,0,0,0-7.268,2.7,12.311,12.311,0,0,0-3.378,5.923Z" transform="translate(-2.379 -108.756)"/><path class="a" d="M161.7,128.627l3.105,1.636a16.521,16.521,0,0,1-3.527,4.9,13.707,13.707,0,0,1-4.517,2.834,15.674,15.674,0,0,1-5.685.977q-7,0-10.982-4.608a15.621,15.621,0,0,1-3.964-10.428,15.428,15.428,0,0,1,3.354-9.745,13.71,13.71,0,0,1,11.382-5.433,14.167,14.167,0,0,1,11.722,5.538,15.446,15.446,0,0,1,3.179,9.8H139.892a11.671,11.671,0,0,0,3.207,8.23,10.2,10.2,0,0,0,7.656,3.21,12.047,12.047,0,0,0,4.266-.763,11.233,11.233,0,0,0,3.526-2.039,16.3,16.3,0,0,0,3.156-4.109m0-7.724a12.067,12.067,0,0,0-2.153-4.705,10.1,10.1,0,0,0-3.748-2.842,11.453,11.453,0,0,0-4.9-1.074,10.5,10.5,0,0,0-7.268,2.7,12.311,12.311,0,0,0-3.378,5.923Z" transform="translate(-2.379 -108.756)"/><path class="a" d="M193.415,112.629l-2.37,2.468c-1.983-1.933-3.925-2.89-5.823-2.89a4.368,4.368,0,0,0-3.085,1.192,3.651,3.651,0,0,0-1.289,2.762,4.131,4.131,0,0,0,1.065,2.669,14.649,14.649,0,0,0,4.444,3.038c2.768,1.429,4.641,2.8,5.623,4.131a7.422,7.422,0,0,1,1.474,4.5,8.073,8.073,0,0,1-2.5,6,8.428,8.428,0,0,1-6.222,2.472,10.754,10.754,0,0,1-4.75-1.1,10.127,10.127,0,0,1-3.737-2.978l2.313-2.64c1.9,2.124,3.891,3.195,6.016,3.195a5.454,5.454,0,0,0,3.788-1.439,4.371,4.371,0,0,0,.541-6.176,17.042,17.042,0,0,0-4.671-3.06,14.7,14.7,0,0,1-5.292-3.958,7.4,7.4,0,0,1-1.413-4.462,7.176,7.176,0,0,1,2.239-5.44,7.808,7.808,0,0,1,5.645-2.161c2.656,0,5.315,1.3,8,3.873" transform="translate(-6.515 -108.756)"/><path class="a" d="M193.415,112.629l-2.37,2.468c-1.983-1.933-3.925-2.89-5.823-2.89a4.368,4.368,0,0,0-3.085,1.192,3.651,3.651,0,0,0-1.289,2.762,4.131,4.131,0,0,0,1.065,2.669,14.649,14.649,0,0,0,4.444,3.038c2.768,1.429,4.641,2.8,5.623,4.131a7.422,7.422,0,0,1,1.474,4.5,8.073,8.073,0,0,1-2.5,6,8.428,8.428,0,0,1-6.222,2.472,10.754,10.754,0,0,1-4.75-1.1,10.127,10.127,0,0,1-3.737-2.978l2.313-2.64c1.9,2.124,3.891,3.195,6.016,3.195a5.454,5.454,0,0,0,3.788-1.439,4.371,4.371,0,0,0,.541-6.176,17.042,17.042,0,0,0-4.671-3.06,14.7,14.7,0,0,1-5.292-3.958,7.4,7.4,0,0,1-1.413-4.462,7.176,7.176,0,0,1,2.239-5.44,7.808,7.808,0,0,1,5.645-2.161c2.656,0,5.315,1.3,8,3.873" transform="translate(-6.515 -108.756)"/><path class="a" d="M219.223,112.629l-2.375,2.468c-1.982-1.933-3.924-2.89-5.809-2.89a4.364,4.364,0,0,0-3.088,1.192,3.626,3.626,0,0,0-1.3,2.762,4.1,4.1,0,0,0,1.065,2.669,14.925,14.925,0,0,0,4.449,3.038A16.449,16.449,0,0,1,217.8,126a7.487,7.487,0,0,1,1.463,4.5,8.125,8.125,0,0,1-2.49,6,8.436,8.436,0,0,1-6.226,2.472,10.728,10.728,0,0,1-4.756-1.1,10.259,10.259,0,0,1-3.748-2.978l2.33-2.64c1.892,2.124,3.884,3.195,6.016,3.195a5.4,5.4,0,0,0,3.776-1.439,4.383,4.383,0,0,0,1.567-3.344,4.3,4.3,0,0,0-1.025-2.832,16.78,16.78,0,0,0-4.659-3.06,14.681,14.681,0,0,1-5.3-3.958,7.559,7.559,0,0,1-1.406-4.462,7.219,7.219,0,0,1,2.24-5.44,7.8,7.8,0,0,1,5.656-2.161c2.632,0,5.3,1.3,7.991,3.873" transform="translate(-9.175 -108.756)"/></g><g transform="translate(210.985 90.128)"><path class="a" d="M256.636,113.5l-4.476,4.459q-2.726-2.673-4.95-2.672a3.105,3.105,0,0,0-1.9.509,1.567,1.567,0,0,0-.683,1.289,1.488,1.488,0,0,0,.431,1.056,7.591,7.591,0,0,0,2.152,1.335l2.642,1.327a16.011,16.011,0,0,1,5.743,4.195,8.76,8.76,0,0,1-1.264,11.408,10.734,10.734,0,0,1-7.55,2.569,12,12,0,0,1-10.046-4.892l4.449-4.827a9.834,9.834,0,0,0,2.955,2.39,6.683,6.683,0,0,0,3.026.9,3.669,3.669,0,0,0,2.308-.685,1.986,1.986,0,0,0,.87-1.6c0-1.1-1.048-2.186-3.145-3.249l-2.432-1.2c-4.641-2.365-6.954-5.279-6.954-8.815a7.594,7.594,0,0,1,2.644-5.826,9.475,9.475,0,0,1,6.71-2.421,11.641,11.641,0,0,1,5.273,1.231,11.762,11.762,0,0,1,4.2,3.51" transform="translate(-236.735 -97.689)"/><path class="a" d="M279.109,108.756a15.177,15.177,0,0,1,7.627,2.037,14.608,14.608,0,0,1,5.565,5.514,14.911,14.911,0,0,1,2.011,7.53,15.222,15.222,0,0,1-2.011,7.6,14.8,14.8,0,0,1-5.5,5.541,15.135,15.135,0,0,1-7.674,1.988,14.281,14.281,0,0,1-10.529-4.392,14.618,14.618,0,0,1-4.351-10.687,14.467,14.467,0,0,1,4.95-11.227,14.245,14.245,0,0,1,9.912-3.908m.08,6.8a7.388,7.388,0,0,0-5.553,2.339,8.281,8.281,0,0,0-2.206,5.973,8.46,8.46,0,0,0,2.188,6.077,7.833,7.833,0,0,0,11.137-.03,9.319,9.319,0,0,0,.045-12.051,7.407,7.407,0,0,0-5.611-2.309" transform="translate(-239.572 -97.689)"/><path class="a" d="M300.568,108.239h2.57c.022-3.771.091-6,.188-6.686a5.565,5.565,0,0,1,1.994-3.754,7.456,7.456,0,0,1,4.836-1.381,14.706,14.706,0,0,1,5.075,1.027v5.465a9.27,9.27,0,0,0-2.545-.435,2.651,2.651,0,0,0-1.846.519,2.3,2.3,0,0,0-.405,1.63l-.045,3.616h4.573v6.1h-4.594l0,47.878h-7.229V114.335h-2.57Z" transform="translate(-243.317 -96.417)"/><path class="a" d="M325.936,97.773h7.236v10.605h4.249v6.192h-4.249v22.518h-7.236V114.571h-3.69v-6.192h3.69Z" transform="translate(-245.552 -96.557)"/><path class="a" d="M344.037,109.6h7.041l5.775,16.329,6.261-16.329h4.256l6.186,16.145L379.3,109.6h7.068l-10.389,28.716h-4.563l-6.216-16.38-6.328,16.38h-4.495Z" transform="translate(-247.799 -97.776)"/><path class="a" d="M416.89,109.511h7.2v28.716h-7.2v-3.045a13.953,13.953,0,0,1-4.238,2.9,11.54,11.54,0,0,1-4.576.887,12.777,12.777,0,0,1-9.619-4.311,15.185,15.185,0,0,1-4.063-10.735,15.471,15.471,0,0,1,3.927-10.911,12.525,12.525,0,0,1,9.541-4.258,12.085,12.085,0,0,1,4.834.971,13.2,13.2,0,0,1,4.193,2.914Zm-7.548,5.861a7.254,7.254,0,0,0-5.547,2.371,9.478,9.478,0,0,0,.04,12.2,7.285,7.285,0,0,0,5.542,2.414,7.376,7.376,0,0,0,5.6-2.371,8.684,8.684,0,0,0,2.24-6.214,8.444,8.444,0,0,0-2.24-6.081,7.467,7.467,0,0,0-5.633-2.322" transform="translate(-252.992 -97.689)"/><path class="a" d="M433.767,109.511h6.241V113.1a7.71,7.71,0,0,1,2.649-3.243,6.4,6.4,0,0,1,3.618-1.1,6.645,6.645,0,0,1,2.9.739l-2.231,6.186a4.86,4.86,0,0,0-2.051-.631,3.215,3.215,0,0,0-2.764,2.06c-.784,1.356-1.161,4.06-1.161,8.086l.051,1.391v11.64h-7.25Z" transform="translate(-257.051 -97.689)"/><path class="a" d="M483.518,125.881H460.347a7.834,7.834,0,0,0,2.676,4.925,8.424,8.424,0,0,0,5.564,1.834,9.541,9.541,0,0,0,6.922-2.866l6.067,2.866a14.575,14.575,0,0,1-5.435,4.793,17.193,17.193,0,0,1-7.531,1.537,14.853,14.853,0,0,1-11-4.268,14.585,14.585,0,0,1-4.215-10.677,15.138,15.138,0,0,1,4.2-10.922,14.331,14.331,0,0,1,10.64-4.346,14.808,14.808,0,0,1,11.069,4.326c2.814,2.883,4.238,6.7,4.238,11.431Zm-7.206-5.631a7.291,7.291,0,0,0-2.813-3.866,8.319,8.319,0,0,0-4.883-1.483,8.7,8.7,0,0,0-5.281,1.671,9.643,9.643,0,0,0-2.665,3.678Z" transform="translate(-259.075 -97.689)"/></g><g transform="translate(118.18 135.902)"><path class="b" d="M135.709,163.141a3.308,3.308,0,0,0,.649,1.841,4.265,4.265,0,0,0,3.407,1.161,5.346,5.346,0,0,0,2.54-.581,1.9,1.9,0,0,0,1.1-1.795,1.52,1.52,0,0,0-.876-1.4,11.052,11.052,0,0,0-2.214-.681l-2.055-.48a10.482,10.482,0,0,1-2.9-1.014,3,3,0,0,1-1.667-2.7,4,4,0,0,1,1.569-3.283,6.575,6.575,0,0,1,4.222-1.255q3.47,0,5,1.9a3.929,3.929,0,0,1,.933,2.588h-2.405a2.629,2.629,0,0,0-.622-1.473,4.193,4.193,0,0,0-3.112-.943,3.981,3.981,0,0,0-2.238.518,1.589,1.589,0,0,0-.761,1.37,1.673,1.673,0,0,0,1,1.489,6.261,6.261,0,0,0,1.7.587l1.716.387a13.993,13.993,0,0,1,3.746,1.214,3.16,3.16,0,0,1,1.485,2.9,4.28,4.28,0,0,1-1.553,3.3,6.932,6.932,0,0,1-4.734,1.387q-3.422,0-4.847-1.448a5.281,5.281,0,0,1-1.526-3.583Z" transform="translate(-133.261 -148.022)"/><path class="b" d="M284.458,163.141a3.314,3.314,0,0,0,.648,1.841,4.267,4.267,0,0,0,3.408,1.161,5.346,5.346,0,0,0,2.54-.581,1.9,1.9,0,0,0,1.1-1.795,1.519,1.519,0,0,0-.877-1.4,11.04,11.04,0,0,0-2.214-.681l-2.056-.48a10.494,10.494,0,0,1-2.9-1.014,3,3,0,0,1-1.666-2.7A4,4,0,0,1,284,154.214a6.574,6.574,0,0,1,4.222-1.255q3.47,0,5,1.9a3.928,3.928,0,0,1,.932,2.588h-2.4a2.636,2.636,0,0,0-.622-1.473,4.2,4.2,0,0,0-3.113-.943,3.976,3.976,0,0,0-2.237.518,1.589,1.589,0,0,0-.761,1.37,1.673,1.673,0,0,0,1,1.489,6.249,6.249,0,0,0,1.7.587l1.715.387a14,14,0,0,1,3.747,1.214,3.16,3.16,0,0,1,1.485,2.9,4.278,4.278,0,0,1-1.554,3.3,6.931,6.931,0,0,1-4.733,1.387q-3.423,0-4.847-1.448a5.281,5.281,0,0,1-1.526-3.583Z" transform="translate(-148.599 -148.022)"/><path class="b" d="M166.089,154.754a6.977,6.977,0,0,1,2.008,5.413,8.954,8.954,0,0,1-1.77,5.706q-1.769,2.253-5.491,2.253a6.355,6.355,0,0,1-4.93-1.993,7.617,7.617,0,0,1-1.825-5.353A8.236,8.236,0,0,1,156,155.048a6.618,6.618,0,0,1,5.169-2.134A7.015,7.015,0,0,1,166.089,154.754Zm-1.581,9.5a8.634,8.634,0,0,0,.93-4.018,6.875,6.875,0,0,0-.671-3.251,3.814,3.814,0,0,0-3.665-1.973,3.661,3.661,0,0,0-3.357,1.68,7.5,7.5,0,0,0-1.048,4.051,6.534,6.534,0,0,0,1.048,3.8,3.758,3.758,0,0,0,3.329,1.519A3.506,3.506,0,0,0,164.508,164.252Z" transform="translate(-135.408 -148.017)"/><path class="b" d="M178.053,147.454H180.6v19.6h-2.546Z" transform="translate(-137.88 -147.454)"/><path class="b" d="M192.47,153.376v9.487a3.9,3.9,0,0,0,.358,1.788,2.517,2.517,0,0,0,2.466,1.281,3.49,3.49,0,0,0,3.527-2.242,8.657,8.657,0,0,0,.509-3.3v-7.019h2.547v14.291h-2.405l.029-2.109a4.928,4.928,0,0,1-1.208,1.375,5.453,5.453,0,0,1-3.47,1.12q-3.178,0-4.329-2.041a5.874,5.874,0,0,1-.625-2.922v-9.714Z" transform="translate(-139.098 -148.065)"/><path class="b" d="M213.005,148.927h2.574v3.99H218v1.962h-2.419v9.327a1,1,0,0,0,.538,1,2.392,2.392,0,0,0,.99.147c.122,0,.254,0,.4-.009s.307-.021.5-.045v1.909a5.926,5.926,0,0,1-.913.173,9.088,9.088,0,0,1-1.024.054,2.848,2.848,0,0,1-2.419-.861,3.663,3.663,0,0,1-.637-2.235v-9.46h-2.051v-1.962h2.051Z" transform="translate(-141.272 -147.606)"/><path class="b" d="M226.427,147.454h2.588v2.722h-2.588Zm0,5.378h2.588v14.225h-2.588Z" transform="translate(-142.868 -147.454)"/><path class="b" d="M249.24,154.754a6.977,6.977,0,0,1,2.008,5.413,8.954,8.954,0,0,1-1.77,5.706q-1.769,2.253-5.491,2.253a6.355,6.355,0,0,1-4.93-1.993,7.617,7.617,0,0,1-1.825-5.353,8.237,8.237,0,0,1,1.923-5.733,6.617,6.617,0,0,1,5.169-2.134A7.015,7.015,0,0,1,249.24,154.754Zm-1.581,9.5a8.646,8.646,0,0,0,.93-4.018,6.875,6.875,0,0,0-.671-3.251,3.814,3.814,0,0,0-3.665-1.973,3.661,3.661,0,0,0-3.357,1.68,7.5,7.5,0,0,0-1.048,4.051,6.534,6.534,0,0,0,1.048,3.8,3.758,3.758,0,0,0,3.329,1.519A3.506,3.506,0,0,0,247.659,164.252Z" transform="translate(-143.982 -148.017)"/><path class="b" d="M261.126,153.339h2.419v2.028a6.7,6.7,0,0,1,2.277-1.8,6.369,6.369,0,0,1,2.673-.547q3.225,0,4.356,2.121a7.17,7.17,0,0,1,.622,3.323v9.167h-2.589v-9.007a4.633,4.633,0,0,0-.41-2.108,2.512,2.512,0,0,0-2.461-1.335,5.324,5.324,0,0,0-1.485.173,3.838,3.838,0,0,0-1.839,1.175,3.472,3.472,0,0,0-.828,1.461,9.288,9.288,0,0,0-.191,2.154v7.486h-2.545Z" transform="translate(-146.445 -148.028)"/></g></g></svg>